# xmcd CD database file
#
# Track frame offsets:
#	177
#	21820
#	40782
#	63212
#	83230
#	96932
#	115902
#	136552
#	159560
#	169097
#	185850
#	203362
#	217392
#	226050
#
# Disc length: 3239 seconds
#
# Revision: 15
# Processed by: cddbd v1.5PL3 Copyright (c) Steve Scherf et al.
# Submitted via: CDex 1.51
#
DISCID=b60ca50e
DTITLE=K's Choice - Paradise In Me
DYEAR=1995
DGENRE=Rock
TTITLE0=Not An Addict
TTITLE1=A Sound That Only You Can Hear
TTITLE2=White Kite Fauna
TTITLE3=Mr Freeze
TTITLE4=Song For Catherine
TTITLE5=To This Day
TTITLE6=Iron Flower
TTITLE7=Wait
TTITLE8=Paradise In Me
TTITLE9=My Record Company
TTITLE10=Only Dreaming
TTITLE11=Dad
TTITLE12=Old Woman
TTITLE13=Something's Wrong
EXTD=YEAR: 1995
EXTT0=Breathe it in and breathe it out\nand pass it on, it's almost out\nWe're so creative, so much more\nwe're high above but on the floor\n\nIt' s not a habbit, it's cool, I feel alive\nIf you don't have it you're on the other side\n\nThe deeper you st
EXTT0=ick it in your vein\nthe deeper the thoughts, there's no more pain\nI'm in heaven, I'm a god\nI'm everywhere, Ifeel so hot\n\nIt's not a habbit, it's cool, I feel alive\nIf you don't have it you're on the other side\nI'm not an addict (maybe that's
EXTT0=a lie]\n\nIt's over now, I'm cold, alone\nI'm just a person on my own\nNothing means a thing to me\n(nothing means a thing to me]\n\n It's not a habbit, it's cool, I feel alive\nIf you don't have it you're on the other side\nI'm not an addict (may
EXTT0=be that's a lie]\n\nFree me, leave me\nwatch meas I'm going down\nFree me, see me\nlook at me, I 'm falling and I'm falling...\n\nIt's not a habbit, it is cool I feel alive I feel...\n\nIt'snot a habbit, it's cool, I feel alive\nIf you don't have i
EXTT0=t you're onthe other side\nI'm not an addict (maybe that' s a lie]\n
EXTT1=
EXTT2=
EXTT3=I'm about to tell you about a man I've known\nsince I've been able to open up a refrigerator\n\nI am wondering today in the sun on a boat to  Dover\ncould you freeze me in and defrost me when it's over\n\nMr. Fr eeze, I feel your chill\nas I inhale
EXTT3=the urge to kill all my emotionss nI ask you please, but all\nyou do is make me sneeze\nMr. Freeze\n\nI a m wondering today in the sun on a boat to Dover\nwhose shadow it is th at appears as I bend over\n\nIt's Mr. Freeze, I hear no sound\nas I fo
EXTT3=cus on the amount of my emotions\nI ask you please, take the lead or l et me bleed\nMr. Freeze\n\nmy temperature is really low now - you're he re\nbutyou're not welcome any longer\nI will release Mr. Freeze\n\nno  bangs, no yells, merely the sea\ni
EXTT3=s Mr. Freeze inside of me..\n\nI am  wonderingtoday in the sun on a boat to Dover\nhow it comes that I fe el so highwhen I ought to feel lower
EXTT4=
EXTT5=
EXTT6=
EXTT7=
EXTT8=All done by MR Snorbj rn
EXTT9=
EXTT10=
EXTT11=
EXTT12=
EXTT13=
PLAYORDER=
